<?xml version="1.0" encoding="UTF-8" standalone="no"?>
<svg
   xmlns:dc="http://purl.org/dc/elements/1.1/"
   xmlns:cc="http://creativecommons.org/ns#"
   xmlns:rdf="http://www.w3.org/1999/02/22-rdf-syntax-ns#"
   xmlns:svg="http://www.w3.org/2000/svg"
   xmlns="http://www.w3.org/2000/svg"
   xmlns:sodipodi="http://sodipodi.sourceforge.net/DTD/sodipodi-0.dtd"
   xmlns:inkscape="http://www.inkscape.org/namespaces/inkscape"
   viewBox="0 0 512 512"
   version="1.1"
   id="svg4"
   sodipodi:docname="favicon.svg"
   inkscape:version="1.0.2-2 (e86c870879, 2021-01-15)">
  <metadata
     id="metadata10">
    <rdf:RDF>
      <cc:Work
         rdf:about="">
        <dc:format>image/svg+xml</dc:format>
        <dc:type
           rdf:resource="http://purl.org/dc/dcmitype/StillImage" />
      </cc:Work>
    </rdf:RDF>
  </metadata>
  <defs
     id="defs8" />
  <sodipodi:namedview
     pagecolor="#ffffff"
     bordercolor="#666666"
     borderopacity="1"
     objecttolerance="10"
     gridtolerance="10"
     guidetolerance="10"
     inkscape:pageopacity="0"
     inkscape:pageshadow="2"
     inkscape:window-width="1920"
     inkscape:window-height="1027"
     id="namedview6"
     showgrid="false"
     inkscape:zoom="1.1877184"
     inkscape:cx="215.31074"
     inkscape:cy="257.97281"
     inkscape:window-x="-8"
     inkscape:window-y="-8"
     inkscape:window-maximized="1"
     inkscape:current-layer="svg4"
     inkscape:document-rotation="0" />
  <!-- Font Awesome Free 5.15.3 by @fontawesome - https://fontawesome.com License - https://fontawesome.com/license/free (Icons: CC BY 4.0, Fonts: SIL OFL 1.1, Code: MIT License) -->
  <path
     d="M 464,484 H 48 C 21.49,484 0,462.51 0,436 V 80 C 0,53.49 21.49,32 48,32 h 416 c 26.51,0 48,21.49 48,48 v 356 c 0,26.51 -21.49,48 -48,48 z M 112,88 c -30.928,0 -56,25.072 -56,56 0,30.928 25.072,56 56,56 30.928,0 56,-25.072 56,-56 0,-30.928 -25.072,-56 -56,-56 z M 64,352 H 448 V 240 l -87.515,-87.515 c -4.686,-4.686 -12.284,-4.686 -16.971,0 L 208,288 152.485,232.485 c -4.686,-4.686 -12.284,-4.686 -16.971,0 L 64,304 Z"
     id="path2"
     sodipodi:nodetypes="sssssssssssssscccsccsccc"
     style="fill:#6200ee;fill-opacity:1" />
</svg>
