<?xml version="1.0" standalone="no"?>
<!DOCTYPE svg PUBLIC "-//W3C//DTD SVG 20010904//EN"
 "http://www.w3.org/TR/2001/REC-SVG-20010904/DTD/svg10.dtd">
<svg version="1.0" xmlns="http://www.w3.org/2000/svg"
 width="700.000000pt" height="700.000000pt" viewBox="0 0 700.000000 700.000000"
 preserveAspectRatio="xMidYMid meet">
<metadata>
Created by potrace 1.14, written by Peter Selinger 2001-2017
</metadata>
<g transform="translate(0.000000,700.000000) scale(0.100000,-0.100000)"
fill="#000000" stroke="none">
<path d="M625 6562 c-173 -12 -324 -82 -442 -204 -55 -57 -123 -158 -123 -182
0 -8 -4 -17 -9 -20 -5 -4 -19 -46 -30 -95 l-21 -89 2 -2529 c3 -2436 4 -2530
22 -2583 68 -203 184 -335 369 -420 130 -60 -63 -57 3127 -55 1609 1 2938 5
2953 9 244 60 413 212 495 445 l27 76 0 2555 0 2555 -24 70 c-79 235 -241 387
-481 450 -61 16 -260 18 -2945 19 -1584 0 -2898 0 -2920 -2z m1084 -787 c282
-73 485 -272 562 -550 30 -107 30 -276 1 -386 -90 -338 -389 -569 -737 -570
-156 -1 -278 33 -409 115 -327 204 -450 623 -286 973 99 212 303 375 525 420
114 24 249 23 344 -2z m3801 -1441 l615 -614 0 -765 0 -765 -40 0 c-55 -1
-5076 -1 -5150 0 l-60 0 0 327 1 328 499 499 c292 291 513 505 532 512 41 18
82 18 123 1 18 -8 198 -181 419 -400 212 -213 390 -387 395 -387 4 0 425 417
934 926 509 509 936 933 949 941 35 23 83 30 128 20 35 -9 115 -84 655 -623z"/>
</g>
</svg>
